<?xml version="1.0" encoding="UTF-8" standalone="no"?>
<svg
   width="213"
   viewBox="0 0 213 195"
   role="img"
   version="1.1"
   id="svg24"
   sodipodi:docname="micro_lf_logo_chip_v3.svg"
   inkscape:version="1.4.4 (dcaf3e7d9e, 2026-05-05)"
   height="195"
   xmlns:inkscape="http://www.inkscape.org/namespaces/inkscape"
   xmlns:sodipodi="http://sodipodi.sourceforge.net/DTD/sodipodi-0.dtd"
   xmlns="http://www.w3.org/2000/svg"
   xmlns:svg="http://www.w3.org/2000/svg"
   xmlns:rdf="http://www.w3.org/1999/02/22-rdf-syntax-ns#"
   xmlns:cc="http://creativecommons.org/ns#"
   xmlns:dc="http://purl.org/dc/elements/1.1/">
  <sodipodi:namedview
     id="namedview24"
     pagecolor="#ffffff"
     bordercolor="#000000"
     borderopacity="0.25"
     inkscape:showpageshadow="2"
     inkscape:pageopacity="0.0"
     inkscape:pagecheckerboard="0"
     inkscape:deskcolor="#d1d1d1"
     inkscape:zoom="2.2174787"
     inkscape:cx="309.81132"
     inkscape:cy="166.40521"
     inkscape:window-width="1440"
     inkscape:window-height="891"
     inkscape:window-x="0"
     inkscape:window-y="0"
     inkscape:window-maximized="1"
     inkscape:current-layer="svg24">
    <inkscape:page
       x="0"
       y="0"
       width="213"
       height="195"
       id="page2"
       margin="0"
       bleed="0" />
  </sodipodi:namedview>
  <title
     id="title1">micro-LF logo</title>
  <desc
     id="desc1">A minimal logo for micro-LF styled as a packaged microcontroller chip with realistic gull-wing leads, pin-1 dimple, and silkscreened wordmark.</desc>
  <defs
     id="defs4">
    <clipPath
       clipPathUnits="userSpaceOnUse"
       id="clipPath2">
      <path
         d="m -126.5786,76.436801 h 276.279 V -199.0042 h -276.279 z"
         id="path2"
         style="stroke-width:0.999996" />
    </clipPath>
    <clipPath
       clipPathUnits="userSpaceOnUse"
       id="clipPath1">
      <path
         d="m -126.5786,206.7826 h 276.279 V -68.658404 h -276.279 z"
         id="path1"
         style="stroke-width:0.999996" />
    </clipPath>
  </defs>
  <rect
     x="0.5"
     y="0.5"
     width="212"
     height="194"
     rx="8"
     fill="var(--color-text-primary)"
     stroke="var(--color-text-primary)"
     stroke-width="1"
     style="color:#000000;font-weight:400;font-size:12px;font-family:'Anthropic Sans', '-apple-system', BlinkMacSystemFont, 'Segoe UI', sans-serif;dominant-baseline:auto;text-anchor:start;fill:#141413;stroke:#141413;stroke-width:1px;stroke-linecap:butt;stroke-linejoin:miter"
     id="rect23" />
  <circle
     cx="20.5"
     cy="20.5"
     r="4.5"
     fill="none"
     stroke="var(--color-background-primary)"
     stroke-width="1.2"
     opacity="0.7"
     style="color:#000000;font-weight:400;font-size:12px;font-family:'Anthropic Sans', '-apple-system', BlinkMacSystemFont, 'Segoe UI', sans-serif;dominant-baseline:auto;text-anchor:start;opacity:0.7;fill:#ffffff;fill-opacity:1;stroke:#ffffff;stroke-width:1.2px;stroke-linecap:butt;stroke-linejoin:miter"
     id="circle23" />
  <text
     x="106.5"
     y="156.5"
     font-size="11"
     font-weight="400"
     font-family="var(--font-mono)"
     text-anchor="middle"
     fill="var(--color-background-primary)"
     opacity="0.55"
     letter-spacing="1.5"
     style="color:#000000;font-weight:400;font-size:11px;font-family:ui-monospace, monospace;dominant-baseline:auto;text-anchor:middle;opacity:0.55;fill:#ffffff;stroke:none;stroke-width:1px;stroke-linecap:butt;stroke-linejoin:miter"
     id="text24">REACTOR-UC</text>
  <text
     x="67.294495"
     y="133.65427"
     font-size="48"
     font-weight="500"
     font-family="var(--font-sans)"
     text-anchor="middle"
     fill="var(--color-background-primary)"
     style="color:#000000;font-style:normal;font-variant:normal;font-weight:normal;font-stretch:normal;font-size:58.6257px;font-family:'UbuntuMono Nerd Font';-inkscape-font-specification:'UbuntuMono Nerd Font, Normal';font-variant-ligatures:normal;font-variant-caps:normal;font-variant-numeric:normal;font-variant-east-asian:normal;dominant-baseline:auto;text-anchor:middle;fill:#ffffff;stroke:none;stroke-width:1.22137px;stroke-linecap:butt;stroke-linejoin:miter"
     id="text23">μ</text>
  <g
     id="g25"
     transform="matrix(0.31976423,0,0,0.31976423,-40.86392,21.20108)">
    <g
       id="g38"
       transform="matrix(1.0777541,0,0,-1.0777541,499.61729,163.51268)"
       clip-path="url(#clipPath2)"
       style="fill:#ffffff;fill-opacity:1"
       inkscape:export-filename="../workspace/reactor-uc/docs/docs/assets/logos/lf-white.svg"
       inkscape:export-xdpi="150"
       inkscape:export-ydpi="150">
      <path
         d="m 0,0 c 4.038,0 7.322,-3.285 7.322,-7.322 0,-4.038 -3.284,-7.323 -7.322,-7.323 -4.038,0 -7.323,3.285 -7.323,7.323 C -7.323,-3.285 -4.038,0 0,0 m -6.455,-22.479 v -58.255 h 12.91 v 58.255 c 3.901,1.669 7.033,4.8 8.701,8.702 H 119.521 V -0.868 H 15.156 C 12.64,5.018 6.794,9.153 0,9.153 c -9.084,0 -16.476,-7.391 -16.476,-16.475 0,-6.795 4.136,-12.64 10.021,-15.157"
         style="fill:#ffffff;fill-opacity:1;fill-rule:nonzero;stroke:none"
         id="path40" />
    </g>
    <g
       id="g42"
       transform="matrix(1.0777541,0,0,-1.0777541,499.61729,303.9934)"
       style="fill:#ffffff;fill-opacity:1"
       clip-path="url(#clipPath1)">
      <path
         d="m 0,0 c 4.038,0 7.322,-3.284 7.322,-7.322 0,-4.037 -3.284,-7.323 -7.322,-7.323 -4.038,0 -7.323,3.286 -7.323,7.323 C -7.323,-3.284 -4.038,0 0,0 m 119.332,98.498 c 4.037,0 7.322,-3.285 7.322,-7.323 0,-4.037 -3.285,-7.322 -7.322,-7.322 -4.038,0 -7.323,3.285 -7.323,7.322 0,4.038 3.285,7.323 7.323,7.323 M 104.464,84.122 c 2.649,-5.56 8.308,-9.422 14.868,-9.422 9.084,0 16.475,7.391 16.475,16.475 0,9.085 -7.391,16.476 -16.475,16.476 -7.017,0 -13.006,-4.417 -15.377,-10.609 H 29.226 V 49.611 h 77.385 V 30.082 H 29.226 V -32.705 H -88.8 v 149.274 h 22.772 V -13.178 h 50.647 c 2.368,-6.198 8.36,-10.62 15.381,-10.62 9.084,0 16.476,7.392 16.476,16.476 0,9.085 -7.392,16.476 -16.476,16.476 -6.559,0 -12.218,-3.862 -14.867,-9.423 h -38.252 v 129.747 h -48.59 V -45.614 H 42.135 v 62.787 h 77.386 V 62.521 H 42.135 v 21.612 z"
         style="fill:#ffffff;fill-opacity:1;fill-rule:nonzero;stroke:none"
         id="path44" />
    </g>
    <g
       id="g22"
       style="fill:#ffffff;fill-opacity:1;stroke-width:0.99975;stroke-miterlimit:4;stroke-dasharray:none"
       transform="matrix(1.0777565,0,0,-1.3333333,261.65468,845.83002)">
      <path
         d="m 156.85268,517.64178 h 13.08 c 6.382,18.14697 27.057,31.48115 51.526,31.48115 v 0 c 24.469,0 45.143,-13.33418 51.525,-31.48115 v 0 h 13.08 c -6.679,23.85781 -33.099,41.73075 -64.605,41.73075 v 0 c -31.506,0 -57.927,-17.87294 -64.606,-41.73075"
         style="fill:#ffffff;fill-opacity:1;stroke:none;stroke-width:0.898434;stroke-miterlimit:4;stroke-dasharray:none"
         id="path30" />
    </g>
  </g>
  <metadata
     id="metadata1">
    <rdf:RDF>
      <cc:Work
         rdf:about="">
        <dc:title>micro-LF logo</dc:title>
      </cc:Work>
    </rdf:RDF>
  </metadata>
</svg>
